# xmcd
#
# Track frame offsets: 
#        150
#        20535
#        47550
#        67200
#        92775
#        111675
#        133050
#        158100
#        180976
#        197176
#        215100
#        237601
#        260776
#
# Disc length: 3696 seconds
#
# Revision: 5
# Processed by: cddbd v1.5.2PL0 Copyright (c) Steve Scherf et al.
# Submitted via: ExactAudioCopy v0.95b4
#
DISCID=cf0e6e0d
DTITLE=Eddie Higgins Trio - A Lovely Way To Spend An Evening
DYEAR=2006
DGENRE=Jazz
TTITLE0=I Could Write A Book
TTITLE1=Guess I'll Hang My Tears Out To Dry
TTITLE2=April In Paris
TTITLE3=Polka Dots And Moonbeams
TTITLE4=A Lovely Way To Spend An Evening
TTITLE5=Gentle Rain
TTITLE6=I Get A Kick Out Of You
TTITLE7=Serenade In Blue
TTITLE8=Why Was I Born
TTITLE9=Come Rain Or Come Shine
TTITLE10=The Way You Look Tonight
TTITLE11=Moonlight Serenade
TTITLE12=It Might As Well Be Spring
EXTD=YEAR: 2007
EXTT0=
EXTT1=
EXTT2=
EXTT3=
EXTT4=
EXTT5=
EXTT6=
EXTT7=
EXTT8=
EXTT9=
EXTT10=
EXTT11=
EXTT12=
PLAYORDER=
